<svg width="685" height="240" viewBox="0 0 685 240" fill="none" xmlns="http://www.w3.org/2000/svg">
<path d="M61 0H685V153L624 240H0V87L61 0Z" fill="white"/>
<path fill-rule="evenodd" clip-rule="evenodd" d="M171.474 65.394C172.546 66.7425 173.159 68.3968 173.226 70.1164C173.292 71.8359 172.808 73.531 171.844 74.9551L149.188 108.417L175.999 126.569C177.225 127.399 178.201 128.549 178.82 129.893C179.439 131.237 179.677 132.725 179.509 134.194C179.341 135.664 178.773 137.058 177.866 138.226C176.96 139.394 175.75 140.29 174.368 140.818L82.1377 175.974C80.5303 176.589 78.7676 176.676 77.1062 176.22C75.4448 175.765 73.9713 174.792 72.9001 173.443C71.8289 172.094 71.2158 170.439 71.1502 168.719C71.0845 166.999 71.5697 165.304 72.535 163.88L95.1906 130.418L68.3796 112.266C67.1532 111.436 66.1774 110.287 65.5586 108.942C64.9397 107.598 64.7014 106.11 64.8696 104.641C65.0378 103.172 65.606 101.777 66.5125 100.609C67.419 99.4415 68.629 98.545 70.0108 98.0174L162.241 62.861C163.848 62.2488 165.61 62.165 167.269 62.6217C168.929 63.0784 170.4 64.0519 171.47 65.4006L171.474 65.394Z" fill="#FACC15" fill-opacity="0.7"/>
<path fill-rule="evenodd" clip-rule="evenodd" d="M133.93 40.4029C135.739 40.9701 137.318 42.0979 138.439 43.6222C139.561 45.1466 140.165 46.988 140.165 48.8787V93.3015H175.792C177.422 93.3008 179.02 93.7458 180.413 94.5882C181.806 95.4306 182.941 96.638 183.694 98.0791C184.448 99.5202 184.79 101.14 184.684 102.761C184.579 104.383 184.029 105.945 183.096 107.277L120.748 196.122C119.663 197.673 118.11 198.838 116.316 199.448C114.521 200.057 112.578 200.08 110.77 199.512C108.962 198.944 107.382 197.815 106.261 196.29C105.141 194.765 104.537 192.923 104.538 191.032V146.609H68.9108C67.2815 146.61 65.6833 146.165 64.2901 145.322C62.8968 144.48 61.7619 143.272 61.0087 141.831C60.2556 140.39 59.9132 138.771 60.0187 137.149C60.1242 135.527 60.6736 133.965 61.6072 132.633L123.955 43.7879C125.042 42.2401 126.595 41.0782 128.389 40.4711C130.183 39.8639 132.124 39.8432 133.93 40.4118V40.4029Z" fill="#22C55E" fill-opacity="0.9"/>
<path d="M227.871 98.4609V64.8609H234.207V92.7009H249.567V98.4609H227.871ZM253.887 98.4609V64.8609H260.223V98.4609H253.887ZM278.159 99.1329C275.855 99.1329 273.759 98.6209 271.871 97.5969C270.015 96.5409 268.527 95.0209 267.407 93.0369C266.319 91.0209 265.775 88.5729 265.775 85.6929V77.6289C265.775 73.3089 266.991 69.9969 269.423 67.6929C271.855 65.3569 275.151 64.1889 279.311 64.1889C283.439 64.1889 286.623 65.2929 288.863 67.5009C291.135 69.6769 292.271 72.6369 292.271 76.3809V76.5729H286.031V76.1889C286.031 74.3969 285.471 72.8929 284.351 71.6769C283.263 70.4609 281.583 69.8529 279.311 69.8529C277.071 69.8529 275.311 70.5409 274.031 71.9169C272.751 73.2929 272.111 75.1649 272.111 77.5329V85.7889C272.111 88.1249 272.751 90.0129 274.031 91.4529C275.311 92.8609 277.103 93.5649 279.407 93.5649C281.711 93.5649 283.391 92.9569 284.447 91.7409C285.503 90.5249 286.031 88.9889 286.031 87.1329V86.6529H278.063V81.2769H292.271V98.4609H286.415V95.2449H285.551C285.327 95.7889 284.959 96.3649 284.447 96.9729C283.967 97.5809 283.231 98.0929 282.239 98.5089C281.247 98.9249 279.887 99.1329 278.159 99.1329ZM298.324 98.4609V64.8609H304.66V78.7329H317.14V64.8609H323.476V98.4609H317.14V84.4929H304.66V98.4609H298.324ZM337.6 98.4609V70.6209H327.808V64.8609H353.728V70.6209H343.936V98.4609H337.6ZM358.043 98.4609V64.8609H370.091L376.763 94.1409H377.627V64.8609H383.867V98.4609H371.819L365.147 69.1809H364.283V98.4609H358.043ZM390.199 98.4609V64.8609H396.535V98.4609H390.199ZM402.855 98.4609V64.8609H414.904L421.576 94.1409H422.44V64.8609H428.68V98.4609H416.632L409.96 69.1809H409.096V98.4609H402.855ZM446.628 99.1329C444.324 99.1329 442.228 98.6209 440.34 97.5969C438.484 96.5409 436.996 95.0209 435.876 93.0369C434.788 91.0209 434.244 88.5729 434.244 85.6929V77.6289C434.244 73.3089 435.46 69.9969 437.892 67.6929C440.324 65.3569 443.62 64.1889 447.78 64.1889C451.908 64.1889 455.092 65.2929 457.332 67.5009C459.604 69.6769 460.74 72.6369 460.74 76.3809V76.5729H454.5V76.1889C454.5 74.3969 453.94 72.8929 452.82 71.6769C451.732 70.4609 450.052 69.8529 447.78 69.8529C445.54 69.8529 443.78 70.5409 442.5 71.9169C441.22 73.2929 440.58 75.1649 440.58 77.5329V85.7889C440.58 88.1249 441.22 90.0129 442.5 91.4529C443.78 92.8609 445.572 93.5649 447.876 93.5649C450.18 93.5649 451.86 92.9569 452.916 91.7409C453.972 90.5249 454.5 88.9889 454.5 87.1329V86.6529H446.532V81.2769H460.74V98.4609H454.884V95.2449H454.02C453.796 95.7889 453.428 96.3649 452.916 96.9729C452.436 97.5809 451.7 98.0929 450.708 98.5089C449.716 98.9249 448.356 99.1329 446.628 99.1329ZM490.645 99.1329C488.053 99.1329 485.765 98.6689 483.781 97.7409C481.797 96.8129 480.245 95.4849 479.125 93.7569C478.005 92.0289 477.445 89.9489 477.445 87.5169V86.1729H483.685V87.5169C483.685 89.5329 484.309 91.0529 485.557 92.0769C486.805 93.0689 488.501 93.5649 490.645 93.5649C492.821 93.5649 494.437 93.1329 495.493 92.2689C496.581 91.4049 497.125 90.3009 497.125 88.9569C497.125 87.5489 496.533 86.5409 495.349 85.9329C494.197 85.2929 492.533 84.7329 490.357 84.2529L489.253 84.0129C486.949 83.5009 484.965 82.8609 483.301 82.0929C481.669 81.2929 480.405 80.2529 479.509 78.9729C478.645 77.6929 478.213 76.0289 478.213 73.9809C478.213 70.9089 479.285 68.5089 481.429 66.7809C483.605 65.0529 486.485 64.1889 490.069 64.1889C492.469 64.1889 494.597 64.6049 496.453 65.4369C498.341 66.2369 499.813 67.4529 500.869 69.0849C501.957 70.6849 502.501 72.7009 502.501 75.1329V76.5729H496.261V75.1329C496.261 73.2129 495.701 71.8369 494.581 71.0049C493.493 70.1729 491.989 69.7569 490.069 69.7569C488.149 69.7569 486.725 70.1249 485.797 70.8609C484.901 71.5649 484.453 72.5409 484.453 73.7889C484.453 75.0369 484.933 75.9969 485.893 76.6689C486.853 77.3409 488.341 77.9009 490.357 78.3489L491.461 78.5889C493.861 79.1009 495.941 79.7569 497.701 80.5569C499.493 81.3569 500.885 82.4129 501.877 83.7249C502.869 85.0369 503.365 86.7169 503.365 88.7649C503.365 90.8129 502.837 92.6209 501.781 94.1889C500.757 95.7249 499.285 96.9409 497.365 97.8369C495.477 98.7009 493.237 99.1329 490.645 99.1329ZM508.09 98.4609V64.8609H514.426V78.7329H526.906V64.8609H533.242V98.4609H526.906V84.4929H514.426V98.4609H508.09ZM537.286 98.4609L546.118 64.8609H557.158L565.99 98.4609H559.462L557.638 91.0689H545.638L543.814 98.4609H537.286ZM547.126 85.2129H556.15L552.07 68.8449H551.206L547.126 85.2129ZM570.012 98.4609V64.8609H584.604C586.716 64.8609 588.556 65.2289 590.124 65.9649C591.692 66.7009 592.908 67.7409 593.772 69.0849C594.636 70.4289 595.068 72.0129 595.068 73.8369V74.4129C595.068 76.4289 594.588 78.0609 593.628 79.3089C592.668 80.5569 591.484 81.4689 590.076 82.0449V82.9089C591.356 82.9729 592.348 83.4209 593.052 84.2529C593.756 85.0529 594.108 86.1249 594.108 87.4689V98.4609H587.772V88.3809C587.772 87.6129 587.564 86.9889 587.148 86.5089C586.764 86.0289 586.108 85.7889 585.18 85.7889H576.348V98.4609H570.012ZM576.348 80.0289H583.932C585.436 80.0289 586.604 79.6289 587.436 78.8289C588.3 77.9969 588.732 76.9089 588.732 75.5649V75.0849C588.732 73.7409 588.316 72.6689 587.484 71.8689C586.652 71.0369 585.468 70.6209 583.932 70.6209H576.348V80.0289ZM600.34 98.4609V64.8609H621.94V70.6209H606.676V78.6369H620.596V84.3969H606.676V92.7009H622.228V98.4609H600.34Z" fill="#22C55E"/>
<path d="M233.103 141.881C231.263 141.881 229.723 141.461 228.483 140.621C227.243 139.781 226.493 138.451 226.233 136.631L228.483 136.121C228.623 137.081 228.913 137.841 229.353 138.401C229.813 138.941 230.363 139.331 231.003 139.571C231.663 139.791 232.363 139.901 233.103 139.901C234.203 139.901 235.073 139.691 235.713 139.271C236.353 138.831 236.673 138.231 236.673 137.471C236.673 136.711 236.363 136.181 235.743 135.881C235.143 135.561 234.313 135.301 233.253 135.101L232.023 134.891C231.063 134.731 230.193 134.481 229.413 134.141C228.653 133.801 228.043 133.341 227.583 132.761C227.123 132.181 226.893 131.451 226.893 130.571C226.893 129.251 227.403 128.221 228.423 127.481C229.443 126.741 230.793 126.371 232.473 126.371C234.133 126.371 235.473 126.751 236.493 127.511C237.533 128.251 238.203 129.301 238.503 130.661L236.283 131.231C236.103 130.171 235.673 129.431 234.993 129.011C234.313 128.571 233.473 128.351 232.473 128.351C231.473 128.351 230.683 128.541 230.103 128.921C229.523 129.301 229.233 129.841 229.233 130.541C229.233 131.241 229.503 131.761 230.043 132.101C230.603 132.421 231.343 132.661 232.263 132.821L233.493 133.031C234.533 133.211 235.463 133.461 236.283 133.781C237.123 134.081 237.783 134.521 238.263 135.101C238.763 135.681 239.013 136.441 239.013 137.381C239.013 138.821 238.473 139.931 237.393 140.711C236.333 141.491 234.903 141.881 233.103 141.881ZM249.733 141.881C248.253 141.881 246.953 141.571 245.833 140.951C244.713 140.311 243.843 139.421 243.223 138.281C242.603 137.141 242.293 135.821 242.293 134.321V133.961C242.293 132.441 242.603 131.111 243.223 129.971C243.843 128.831 244.703 127.951 245.803 127.331C246.903 126.691 248.163 126.371 249.583 126.371C250.963 126.371 252.183 126.671 253.243 127.271C254.303 127.871 255.133 128.721 255.733 129.821C256.333 130.901 256.633 132.181 256.633 133.661V134.741H244.693C244.733 136.321 245.223 137.561 246.163 138.461C247.123 139.341 248.333 139.781 249.793 139.781C251.053 139.781 252.023 139.501 252.703 138.941C253.383 138.361 253.903 137.661 254.263 136.841L256.303 137.831C256.003 138.451 255.593 139.071 255.073 139.691C254.553 140.311 253.863 140.831 253.003 141.251C252.143 141.671 251.053 141.881 249.733 141.881ZM244.723 132.791H254.233C254.153 131.431 253.683 130.371 252.823 129.611C251.983 128.851 250.903 128.471 249.583 128.471C248.243 128.471 247.143 128.851 246.283 129.611C245.423 130.371 244.903 131.431 244.723 132.791ZM260.767 141.461V126.791H263.077V129.281H263.497C263.817 128.581 264.357 127.951 265.117 127.391C265.897 126.811 267.037 126.521 268.537 126.521C269.617 126.521 270.597 126.751 271.477 127.211C272.357 127.671 273.057 128.361 273.577 129.281C274.097 130.181 274.357 131.281 274.357 132.581V141.461H271.987V132.761C271.987 131.301 271.617 130.241 270.877 129.581C270.157 128.921 269.177 128.591 267.937 128.591C266.537 128.591 265.387 129.061 264.487 130.001C263.587 130.921 263.137 132.281 263.137 134.081V141.461H260.767ZM285.376 141.881C284.096 141.881 282.926 141.581 281.866 140.981C280.826 140.361 279.996 139.491 279.376 138.371C278.756 137.251 278.446 135.901 278.446 134.321V133.931C278.446 132.371 278.756 131.031 279.376 129.911C279.996 128.771 280.826 127.901 281.866 127.301C282.926 126.681 284.096 126.371 285.376 126.371C286.896 126.371 288.076 126.661 288.916 127.241C289.756 127.801 290.356 128.421 290.716 129.101H291.136V120.461H293.506V141.461H291.196V139.031H290.776C290.376 139.771 289.756 140.431 288.916 141.011C288.076 141.591 286.896 141.881 285.376 141.881ZM286.006 139.781C287.506 139.781 288.736 139.301 289.696 138.341C290.656 137.361 291.136 136.001 291.136 134.261V133.991C291.136 132.251 290.656 130.901 289.696 129.941C288.736 128.961 287.506 128.471 286.006 128.471C284.486 128.471 283.246 128.961 282.286 129.941C281.326 130.901 280.846 132.251 280.846 133.991V134.261C280.846 136.001 281.326 137.361 282.286 138.341C283.266 139.301 284.506 139.781 286.006 139.781ZM319.888 124.541C319.368 124.541 318.938 124.371 318.598 124.031C318.258 123.691 318.088 123.261 318.088 122.741C318.088 122.201 318.258 121.771 318.598 121.451C318.938 121.111 319.368 120.941 319.888 120.941C320.408 120.941 320.838 121.111 321.178 121.451C321.538 121.771 321.718 122.201 321.718 122.741C321.718 123.261 321.538 123.691 321.178 124.031C320.838 124.371 320.408 124.541 319.888 124.541ZM309.058 141.461V128.861H304.558V126.791H309.058V123.041C309.058 122.241 309.278 121.611 309.718 121.151C310.178 120.691 310.828 120.461 311.668 120.461H315.268V122.501H312.328C311.728 122.501 311.428 122.801 311.428 123.401V126.791H321.088V141.461H318.718V128.861H311.428V141.461H309.058ZM326.07 141.461V120.461H328.44V141.461H326.07ZM340.144 141.881C338.664 141.881 337.364 141.571 336.244 140.951C335.124 140.311 334.254 139.421 333.634 138.281C333.014 137.141 332.704 135.821 332.704 134.321V133.961C332.704 132.441 333.014 131.111 333.634 129.971C334.254 128.831 335.114 127.951 336.214 127.331C337.314 126.691 338.574 126.371 339.994 126.371C341.374 126.371 342.594 126.671 343.654 127.271C344.714 127.871 345.544 128.721 346.144 129.821C346.744 130.901 347.044 132.181 347.044 133.661V134.741H335.104C335.144 136.321 335.634 137.561 336.574 138.461C337.534 139.341 338.744 139.781 340.204 139.781C341.464 139.781 342.434 139.501 343.114 138.941C343.794 138.361 344.314 137.661 344.674 136.841L346.714 137.831C346.414 138.451 346.004 139.071 345.484 139.691C344.964 140.311 344.274 140.831 343.414 141.251C342.554 141.671 341.464 141.881 340.144 141.881ZM335.134 132.791H344.644C344.564 131.431 344.094 130.371 343.234 129.611C342.394 128.851 341.314 128.471 339.994 128.471C338.654 128.471 337.554 128.851 336.694 129.611C335.834 130.371 335.314 131.431 335.134 132.791ZM357.088 141.881C355.248 141.881 353.708 141.461 352.468 140.621C351.228 139.781 350.478 138.451 350.218 136.631L352.468 136.121C352.608 137.081 352.898 137.841 353.338 138.401C353.798 138.941 354.348 139.331 354.988 139.571C355.648 139.791 356.348 139.901 357.088 139.901C358.188 139.901 359.058 139.691 359.698 139.271C360.338 138.831 360.658 138.231 360.658 137.471C360.658 136.711 360.348 136.181 359.728 135.881C359.128 135.561 358.298 135.301 357.238 135.101L356.008 134.891C355.048 134.731 354.178 134.481 353.398 134.141C352.638 133.801 352.028 133.341 351.568 132.761C351.108 132.181 350.878 131.451 350.878 130.571C350.878 129.251 351.388 128.221 352.408 127.481C353.428 126.741 354.778 126.371 356.458 126.371C358.118 126.371 359.458 126.751 360.478 127.511C361.518 128.251 362.188 129.301 362.488 130.661L360.268 131.231C360.088 130.171 359.658 129.431 358.978 129.011C358.298 128.571 357.458 128.351 356.458 128.351C355.458 128.351 354.668 128.541 354.088 128.921C353.508 129.301 353.218 129.841 353.218 130.541C353.218 131.241 353.488 131.761 354.028 132.101C354.588 132.421 355.328 132.661 356.248 132.821L357.478 133.031C358.518 133.211 359.448 133.461 360.268 133.781C361.108 134.081 361.768 134.521 362.248 135.101C362.748 135.681 362.998 136.441 362.998 137.381C362.998 138.821 362.458 139.931 361.378 140.711C360.318 141.491 358.888 141.881 357.088 141.881ZM380.103 141.461C379.263 141.461 378.613 141.231 378.153 140.771C377.713 140.311 377.493 139.681 377.493 138.881V128.861H373.083V126.791H377.493V121.571H379.863V126.791H384.663V128.861H379.863V138.491C379.863 139.091 380.153 139.391 380.733 139.391H384.003V141.461H380.103ZM394.754 141.881C393.274 141.881 391.964 141.571 390.824 140.951C389.704 140.331 388.824 139.461 388.184 138.341C387.564 137.201 387.254 135.861 387.254 134.321V133.931C387.254 132.411 387.564 131.081 388.184 129.941C388.824 128.801 389.704 127.921 390.824 127.301C391.964 126.681 393.274 126.371 394.754 126.371C396.234 126.371 397.534 126.681 398.654 127.301C399.794 127.921 400.674 128.801 401.294 129.941C401.934 131.081 402.254 132.411 402.254 133.931V134.321C402.254 135.861 401.934 137.201 401.294 138.341C400.674 139.461 399.794 140.331 398.654 140.951C397.534 141.571 396.234 141.881 394.754 141.881ZM394.754 139.751C396.294 139.751 397.534 139.261 398.474 138.281C399.414 137.281 399.884 135.941 399.884 134.261V133.991C399.884 132.311 399.414 130.981 398.474 130.001C397.554 129.001 396.314 128.501 394.754 128.501C393.194 128.501 391.944 129.001 391.004 130.001C390.084 130.981 389.624 132.311 389.624 133.991V134.261C389.624 135.941 390.084 137.281 391.004 138.281C391.944 139.261 393.194 139.751 394.754 139.751ZM421.004 141.881C419.524 141.881 418.214 141.571 417.074 140.951C415.954 140.331 415.074 139.461 414.434 138.341C413.814 137.201 413.504 135.861 413.504 134.321V133.931C413.504 132.411 413.814 131.081 414.434 129.941C415.074 128.801 415.954 127.921 417.074 127.301C418.214 126.681 419.524 126.371 421.004 126.371C422.484 126.371 423.784 126.681 424.904 127.301C426.044 127.921 426.924 128.801 427.544 129.941C428.184 131.081 428.504 132.411 428.504 133.931V134.321C428.504 135.861 428.184 137.201 427.544 138.341C426.924 139.461 426.044 140.331 424.904 140.951C423.784 141.571 422.484 141.881 421.004 141.881ZM421.004 139.751C422.544 139.751 423.784 139.261 424.724 138.281C425.664 137.281 426.134 135.941 426.134 134.261V133.991C426.134 132.311 425.664 130.981 424.724 130.001C423.804 129.001 422.564 128.501 421.004 128.501C419.444 128.501 418.194 129.001 417.254 130.001C416.334 130.981 415.874 132.311 415.874 133.991V134.261C415.874 135.941 416.334 137.281 417.254 138.281C418.194 139.261 419.444 139.751 421.004 139.751ZM437.583 141.461C436.743 141.461 436.093 141.231 435.633 140.771C435.193 140.311 434.973 139.681 434.973 138.881V128.861H430.563V126.791H434.973V121.571H437.343V126.791H442.143V128.861H437.343V138.491C437.343 139.091 437.633 139.391 438.213 139.391H441.483V141.461H437.583ZM445.982 141.461V120.461H448.352V129.131H448.772C448.992 128.711 449.302 128.301 449.702 127.901C450.102 127.501 450.622 127.171 451.262 126.911C451.922 126.651 452.752 126.521 453.752 126.521C454.832 126.521 455.812 126.761 456.692 127.241C457.572 127.701 458.272 128.381 458.792 129.281C459.312 130.181 459.572 131.281 459.572 132.581V141.461H457.202V132.761C457.202 131.301 456.832 130.241 456.092 129.581C455.372 128.921 454.392 128.591 453.152 128.591C451.752 128.591 450.602 129.061 449.702 130.001C448.802 130.921 448.352 132.281 448.352 134.081V141.461H445.982ZM471.101 141.881C469.621 141.881 468.321 141.571 467.201 140.951C466.081 140.311 465.211 139.421 464.591 138.281C463.971 137.141 463.661 135.821 463.661 134.321V133.961C463.661 132.441 463.971 131.111 464.591 129.971C465.211 128.831 466.071 127.951 467.171 127.331C468.271 126.691 469.531 126.371 470.951 126.371C472.331 126.371 473.551 126.671 474.611 127.271C475.671 127.871 476.501 128.721 477.101 129.821C477.701 130.901 478.001 132.181 478.001 133.661V134.741H466.061C466.101 136.321 466.591 137.561 467.531 138.461C468.491 139.341 469.701 139.781 471.161 139.781C472.421 139.781 473.391 139.501 474.071 138.941C474.751 138.361 475.271 137.661 475.631 136.841L477.671 137.831C477.371 138.451 476.961 139.071 476.441 139.691C475.921 140.311 475.231 140.831 474.371 141.251C473.511 141.671 472.421 141.881 471.101 141.881ZM466.091 132.791H475.601C475.521 131.431 475.051 130.371 474.191 129.611C473.351 128.851 472.271 128.471 470.951 128.471C469.611 128.471 468.511 128.851 467.651 129.611C466.791 130.371 466.271 131.431 466.091 132.791ZM482.135 141.461V126.791H484.445V128.591H484.865C485.345 127.351 486.455 126.731 488.195 126.731H489.935V128.891H488.045C486.965 128.891 486.105 129.191 485.465 129.791C484.825 130.371 484.505 131.281 484.505 132.521V141.461H482.135ZM507.358 141.881C506.078 141.881 504.908 141.581 503.848 140.981C502.808 140.361 501.978 139.491 501.358 138.371C500.738 137.251 500.428 135.901 500.428 134.321V133.931C500.428 132.371 500.738 131.031 501.358 129.911C501.978 128.771 502.808 127.901 503.848 127.301C504.908 126.681 506.078 126.371 507.358 126.371C508.878 126.371 510.058 126.661 510.898 127.241C511.738 127.801 512.338 128.421 512.698 129.101H513.118V120.461H515.488V141.461H513.178V139.031H512.758C512.358 139.771 511.738 140.431 510.898 141.011C510.058 141.591 508.878 141.881 507.358 141.881ZM507.988 139.781C509.488 139.781 510.718 139.301 511.678 138.341C512.638 137.361 513.118 136.001 513.118 134.261V133.991C513.118 132.251 512.638 130.901 511.678 129.941C510.718 128.961 509.488 128.471 507.988 128.471C506.468 128.471 505.228 128.961 504.268 129.941C503.308 130.901 502.828 132.251 502.828 133.991V134.261C502.828 136.001 503.308 137.361 504.268 138.341C505.248 139.301 506.488 139.781 507.988 139.781ZM527.175 141.881C525.695 141.881 524.395 141.571 523.275 140.951C522.155 140.311 521.285 139.421 520.665 138.281C520.045 137.141 519.735 135.821 519.735 134.321V133.961C519.735 132.441 520.045 131.111 520.665 129.971C521.285 128.831 522.145 127.951 523.245 127.331C524.345 126.691 525.605 126.371 527.025 126.371C528.405 126.371 529.625 126.671 530.685 127.271C531.745 127.871 532.575 128.721 533.175 129.821C533.775 130.901 534.075 132.181 534.075 133.661V134.741H522.135C522.175 136.321 522.665 137.561 523.605 138.461C524.565 139.341 525.775 139.781 527.235 139.781C528.495 139.781 529.465 139.501 530.145 138.941C530.825 138.361 531.345 137.661 531.705 136.841L533.745 137.831C533.445 138.451 533.035 139.071 532.515 139.691C531.995 140.311 531.305 140.831 530.445 141.251C529.585 141.671 528.495 141.881 527.175 141.881ZM522.165 132.791H531.675C531.595 131.431 531.125 130.371 530.265 129.611C529.425 128.851 528.345 128.471 527.025 128.471C525.685 128.471 524.585 128.851 523.725 129.611C522.865 130.371 522.345 131.431 522.165 132.791ZM541.343 141.461L536.093 126.791H538.613L543.023 139.691H543.443L547.853 126.791H550.373L545.123 141.461H541.343ZM553.795 141.461V126.791H556.165V141.461H553.795ZM554.995 124.511C554.475 124.511 554.035 124.341 553.675 124.001C553.335 123.661 553.165 123.231 553.165 122.711C553.165 122.171 553.335 121.731 553.675 121.391C554.035 121.051 554.475 120.881 554.995 120.881C555.515 120.881 555.945 121.051 556.285 121.391C556.625 121.731 556.795 122.171 556.795 122.711C556.795 123.231 556.625 123.661 556.285 124.001C555.945 124.341 555.515 124.511 554.995 124.511ZM567.898 141.881C566.478 141.881 565.198 141.581 564.058 140.981C562.938 140.361 562.048 139.491 561.388 138.371C560.748 137.231 560.428 135.871 560.428 134.291V133.961C560.428 132.381 560.748 131.031 561.388 129.911C562.048 128.771 562.938 127.901 564.058 127.301C565.198 126.681 566.478 126.371 567.898 126.371C569.298 126.371 570.488 126.641 571.468 127.181C572.468 127.701 573.248 128.391 573.808 129.251C574.388 130.091 574.758 131.001 574.918 131.981L572.608 132.461C572.468 131.381 572.018 130.451 571.258 129.671C570.498 128.891 569.388 128.501 567.928 128.501C566.948 128.501 566.068 128.721 565.288 129.161C564.528 129.601 563.918 130.231 563.458 131.051C563.018 131.871 562.798 132.851 562.798 133.991V134.261C562.798 135.401 563.018 136.381 563.458 137.201C563.918 138.021 564.528 138.651 565.288 139.091C566.068 139.531 566.948 139.751 567.928 139.751C569.388 139.751 570.498 139.371 571.258 138.611C572.038 137.851 572.518 136.911 572.698 135.791L575.038 136.301C574.818 137.281 574.418 138.201 573.838 139.061C573.258 139.901 572.468 140.581 571.468 141.101C570.488 141.621 569.298 141.881 567.898 141.881ZM585.798 141.881C584.318 141.881 583.018 141.571 581.898 140.951C580.778 140.311 579.908 139.421 579.288 138.281C578.668 137.141 578.358 135.821 578.358 134.321V133.961C578.358 132.441 578.668 131.111 579.288 129.971C579.908 128.831 580.768 127.951 581.868 127.331C582.968 126.691 584.228 126.371 585.648 126.371C587.028 126.371 588.248 126.671 589.308 127.271C590.368 127.871 591.198 128.721 591.798 129.821C592.398 130.901 592.698 132.181 592.698 133.661V134.741H580.758C580.798 136.321 581.288 137.561 582.228 138.461C583.188 139.341 584.398 139.781 585.858 139.781C587.118 139.781 588.088 139.501 588.768 138.941C589.448 138.361 589.968 137.661 590.328 136.841L592.368 137.831C592.068 138.451 591.658 139.071 591.138 139.691C590.618 140.311 589.928 140.831 589.068 141.251C588.208 141.671 587.118 141.881 585.798 141.881ZM580.788 132.791H590.298C590.218 131.431 589.748 130.371 588.888 129.611C588.048 128.851 586.968 128.471 585.648 128.471C584.308 128.471 583.208 128.851 582.348 129.611C581.488 130.371 580.968 131.431 580.788 132.791ZM602.742 141.881C600.902 141.881 599.362 141.461 598.122 140.621C596.882 139.781 596.132 138.451 595.872 136.631L598.122 136.121C598.262 137.081 598.552 137.841 598.992 138.401C599.452 138.941 600.002 139.331 600.642 139.571C601.302 139.791 602.002 139.901 602.742 139.901C603.842 139.901 604.712 139.691 605.352 139.271C605.992 138.831 606.312 138.231 606.312 137.471C606.312 136.711 606.002 136.181 605.382 135.881C604.782 135.561 603.952 135.301 602.892 135.101L601.662 134.891C600.702 134.731 599.832 134.481 599.052 134.141C598.292 133.801 597.682 133.341 597.222 132.761C596.762 132.181 596.532 131.451 596.532 130.571C596.532 129.251 597.042 128.221 598.062 127.481C599.082 126.741 600.432 126.371 602.112 126.371C603.772 126.371 605.112 126.751 606.132 127.511C607.172 128.251 607.842 129.301 608.142 130.661L605.922 131.231C605.742 130.171 605.312 129.431 604.632 129.011C603.952 128.571 603.112 128.351 602.112 128.351C601.112 128.351 600.322 128.541 599.742 128.921C599.162 129.301 598.872 129.841 598.872 130.541C598.872 131.241 599.142 131.761 599.682 132.101C600.242 132.421 600.982 132.661 601.902 132.821L603.132 133.031C604.172 133.211 605.102 133.461 605.922 133.781C606.762 134.081 607.422 134.521 607.902 135.101C608.402 135.681 608.652 136.441 608.652 137.381C608.652 138.821 608.112 139.931 607.032 140.711C605.972 141.491 604.542 141.881 602.742 141.881ZM612.412 145.211V143.711H613.282C614.002 143.711 614.362 143.351 614.362 142.631V141.671H613.942C613.362 141.671 612.872 141.491 612.472 141.131C612.092 140.771 611.902 140.321 611.902 139.781C611.902 139.201 612.092 138.731 612.472 138.371C612.872 138.011 613.362 137.831 613.942 137.831C614.502 137.831 614.972 138.021 615.352 138.401C615.752 138.781 615.952 139.261 615.952 139.841V142.631C615.952 144.351 615.092 145.211 613.372 145.211H612.412Z" fill="black" fill-opacity="0.92"/>
<path d="M226.983 179.461V158.461H230.073V179.461H226.983ZM234.659 179.461V164.671H237.749V179.461H234.659ZM236.219 162.661C235.619 162.661 235.109 162.471 234.689 162.091C234.289 161.691 234.089 161.181 234.089 160.561C234.089 159.941 234.289 159.441 234.689 159.061C235.109 158.661 235.619 158.461 236.219 158.461C236.819 158.461 237.319 158.661 237.719 159.061C238.139 159.441 238.349 159.941 238.349 160.561C238.349 161.181 238.139 161.691 237.719 162.091C237.319 162.471 236.819 162.661 236.219 162.661ZM241.615 172.141V171.691C241.615 170.151 241.925 168.831 242.545 167.731C243.165 166.611 243.995 165.751 245.035 165.151C246.075 164.551 247.225 164.251 248.485 164.251C249.925 164.251 251.025 164.521 251.785 165.061C252.565 165.601 253.135 166.181 253.495 166.801H253.975V164.671H256.975V182.491C256.975 183.391 256.705 184.111 256.165 184.651C255.645 185.191 254.925 185.461 254.005 185.461H244.045V182.761H253.045C253.625 182.761 253.915 182.461 253.915 181.861V177.151H253.435C253.095 177.731 252.545 178.281 251.785 178.801C251.045 179.301 249.945 179.551 248.485 179.551C247.245 179.551 246.105 179.261 245.065 178.681C244.025 178.081 243.185 177.231 242.545 176.131C241.925 175.011 241.615 173.681 241.615 172.141ZM249.325 176.851C250.665 176.851 251.765 176.431 252.625 175.591C253.505 174.751 253.945 173.571 253.945 172.051V171.781C253.945 170.261 253.505 169.081 252.625 168.241C251.765 167.401 250.665 166.981 249.325 166.981C247.985 166.981 246.885 167.401 246.025 168.241C245.165 169.081 244.735 170.261 244.735 171.781V172.051C244.735 173.571 245.165 174.751 246.025 175.591C246.905 176.431 248.005 176.851 249.325 176.851ZM261.524 179.461V158.461H264.614V166.771H265.094C265.374 166.211 265.864 165.681 266.564 165.181C267.264 164.681 268.324 164.431 269.744 164.431C270.864 164.431 271.854 164.681 272.714 165.181C273.594 165.681 274.284 166.391 274.784 167.311C275.284 168.231 275.534 169.321 275.534 170.581V179.461H272.444V170.821C272.444 169.541 272.124 168.601 271.484 168.001C270.844 167.381 269.964 167.071 268.844 167.071C267.564 167.071 266.534 167.491 265.754 168.331C264.994 169.171 264.614 170.391 264.614 171.991V179.461H261.524ZM285.121 179.461C284.221 179.461 283.501 179.191 282.961 178.651C282.441 178.111 282.181 177.391 282.181 176.491V167.281H278.101V164.671H282.181V159.781H285.271V164.671H289.681V167.281H285.271V175.951C285.271 176.551 285.551 176.851 286.111 176.851H289.201V179.461H285.121ZM293.311 179.461V164.671H296.341V166.891H296.821C297.101 166.291 297.601 165.731 298.321 165.211C299.041 164.691 300.111 164.431 301.531 164.431C302.651 164.431 303.641 164.681 304.501 165.181C305.381 165.681 306.071 166.391 306.571 167.311C307.071 168.231 307.321 169.321 307.321 170.581V179.461H304.231V170.821C304.231 169.541 303.911 168.601 303.271 168.001C302.631 167.381 301.751 167.071 300.631 167.071C299.351 167.071 298.321 167.491 297.541 168.331C296.781 169.171 296.401 170.391 296.401 171.991V179.461H293.311ZM311.768 179.461V164.671H314.858V179.461H311.768ZM313.328 162.661C312.728 162.661 312.218 162.471 311.798 162.091C311.398 161.691 311.198 161.181 311.198 160.561C311.198 159.941 311.398 159.441 311.798 159.061C312.218 158.661 312.728 158.461 313.328 158.461C313.928 158.461 314.428 158.661 314.828 159.061C315.248 159.441 315.458 159.941 315.458 160.561C315.458 161.181 315.248 161.691 314.828 162.091C314.428 162.471 313.928 162.661 313.328 162.661ZM319.444 179.461V164.671H322.474V166.891H322.954C323.234 166.291 323.734 165.731 324.454 165.211C325.174 164.691 326.244 164.431 327.664 164.431C328.784 164.431 329.774 164.681 330.634 165.181C331.514 165.681 332.204 166.391 332.704 167.311C333.204 168.231 333.454 169.321 333.454 170.581V179.461H330.364V170.821C330.364 169.541 330.044 168.601 329.404 168.001C328.764 167.381 327.884 167.071 326.764 167.071C325.484 167.071 324.454 167.491 323.674 168.331C322.914 169.171 322.534 170.391 322.534 171.991V179.461H319.444ZM337.181 172.141V171.691C337.181 170.151 337.491 168.831 338.111 167.731C338.731 166.611 339.561 165.751 340.601 165.151C341.641 164.551 342.791 164.251 344.051 164.251C345.491 164.251 346.591 164.521 347.351 165.061C348.131 165.601 348.701 166.181 349.061 166.801H349.541V164.671H352.541V182.491C352.541 183.391 352.271 184.111 351.731 184.651C351.211 185.191 350.491 185.461 349.571 185.461H339.611V182.761H348.611C349.191 182.761 349.481 182.461 349.481 181.861V177.151H349.001C348.661 177.731 348.111 178.281 347.351 178.801C346.611 179.301 345.511 179.551 344.051 179.551C342.811 179.551 341.671 179.261 340.631 178.681C339.591 178.081 338.751 177.231 338.111 176.131C337.491 175.011 337.181 173.681 337.181 172.141ZM344.891 176.851C346.231 176.851 347.331 176.431 348.191 175.591C349.071 174.751 349.511 173.571 349.511 172.051V171.781C349.511 170.261 349.071 169.081 348.191 168.241C347.331 167.401 346.231 166.981 344.891 166.981C343.551 166.981 342.451 167.401 341.591 168.241C340.731 169.081 340.301 170.261 340.301 171.781V172.051C340.301 173.571 340.731 174.751 341.591 175.591C342.471 176.431 343.571 176.851 344.891 176.851ZM367.407 179.461V167.281H363.267V164.671H367.407V161.431C367.407 160.531 367.667 159.811 368.187 159.271C368.727 158.731 369.457 158.461 370.377 158.461H374.187V161.041H371.367C370.787 161.041 370.497 161.341 370.497 161.941V164.671H374.757V167.281H370.497V179.461H367.407ZM382.247 179.881C381.187 179.881 380.237 179.701 379.397 179.341C378.577 178.981 377.917 178.451 377.417 177.751C376.937 177.051 376.697 176.201 376.697 175.201C376.697 173.701 377.227 172.571 378.287 171.811C379.367 171.031 380.717 170.641 382.337 170.641H386.837V169.681C386.837 168.841 386.577 168.161 386.057 167.641C385.537 167.101 384.737 166.831 383.657 166.831C382.597 166.831 381.787 167.081 381.227 167.581C380.667 168.081 380.297 168.731 380.117 169.531L377.237 168.601C377.477 167.821 377.857 167.101 378.377 166.441C378.917 165.781 379.617 165.251 380.477 164.851C381.357 164.451 382.427 164.251 383.687 164.251C385.607 164.251 387.117 164.741 388.217 165.721C389.317 166.701 389.867 168.091 389.867 169.891V175.981C389.867 176.581 390.147 176.881 390.707 176.881H391.967V179.461H389.657C388.977 179.461 388.417 179.281 387.977 178.921C387.537 178.561 387.317 178.071 387.317 177.451V177.361H386.837C386.677 177.681 386.437 178.041 386.117 178.441C385.797 178.821 385.327 179.161 384.707 179.461C384.087 179.741 383.267 179.881 382.247 179.881ZM382.697 177.331C383.917 177.331 384.907 176.981 385.667 176.281C386.447 175.561 386.837 174.581 386.837 173.341V173.041H382.517C381.697 173.041 381.037 173.221 380.537 173.581C380.037 173.921 379.787 174.431 379.787 175.111C379.787 175.791 380.047 176.331 380.567 176.731C381.087 177.131 381.797 177.331 382.697 177.331ZM400.914 179.881C399.014 179.881 397.444 179.461 396.204 178.621C394.964 177.781 394.214 176.511 393.954 174.811L396.834 174.121C397.054 175.361 397.534 176.221 398.274 176.701C399.034 177.161 399.914 177.391 400.914 177.391C401.894 177.391 402.644 177.211 403.164 176.851C403.704 176.471 403.974 175.971 403.974 175.351C403.974 174.751 403.724 174.311 403.224 174.031C402.724 173.751 401.994 173.521 401.034 173.341L399.984 173.161C398.984 172.981 398.074 172.721 397.254 172.381C396.434 172.041 395.784 171.571 395.304 170.971C394.824 170.371 394.584 169.601 394.584 168.661C394.584 167.261 395.104 166.181 396.144 165.421C397.184 164.641 398.564 164.251 400.284 164.251C401.944 164.251 403.304 164.631 404.364 165.391C405.444 166.131 406.144 167.141 406.464 168.421L403.584 169.231C403.404 168.331 403.024 167.701 402.444 167.341C401.864 166.961 401.144 166.771 400.284 166.771C399.444 166.771 398.784 166.931 398.304 167.251C397.824 167.551 397.584 167.981 397.584 168.541C397.584 169.141 397.814 169.581 398.274 169.861C398.754 170.141 399.394 170.351 400.194 170.491L401.244 170.671C402.304 170.851 403.264 171.111 404.124 171.451C405.004 171.771 405.704 172.231 406.224 172.831C406.744 173.411 407.004 174.201 407.004 175.201C407.004 176.701 406.444 177.861 405.324 178.681C404.224 179.481 402.754 179.881 400.914 179.881ZM415.844 179.461C414.944 179.461 414.224 179.191 413.684 178.651C413.164 178.111 412.904 177.391 412.904 176.491V167.281H408.824V164.671H412.904V159.781H415.994V164.671H420.404V167.281H415.994V175.951C415.994 176.551 416.274 176.851 416.834 176.851H419.924V179.461H415.844ZM425.894 179.881C425.194 179.881 424.604 179.651 424.124 179.191C423.664 178.731 423.434 178.141 423.434 177.421C423.434 176.701 423.664 176.121 424.124 175.681C424.604 175.221 425.194 174.991 425.894 174.991C426.594 174.991 427.174 175.221 427.634 175.681C428.114 176.121 428.354 176.701 428.354 177.421C428.354 178.141 428.114 178.731 427.634 179.191C427.174 179.651 426.594 179.881 425.894 179.881Z" fill="#EAB308"/>
</svg>
